<svg width="304" height="23" viewBox="0 0 304 23" fill="none" xmlns="http://www.w3.org/2000/svg">
<g filter="url(#filter0_d_15_72)">
<mask id="path-1-outside-1_15_72" maskUnits="userSpaceOnUse" x="0.0500031" y="-0.695999" width="303" height="22" fill="black">
<rect fill="white" x="0.0500031" y="-0.695999" width="303" height="22"/>
<path d="M12.634 1.234V3.652H4.964V8.982H10.944V11.4H4.964V19.304H2V1.234H12.634ZM18.3189 1.234V12.752C18.3189 14.1213 18.6742 15.1527 19.3849 15.846C20.1129 16.5393 21.1182 16.886 22.4009 16.886C23.7009 16.886 24.7062 16.5393 25.4169 15.846C26.1449 15.1527 26.5089 14.1213 26.5089 12.752V1.234H29.4729V12.7C29.4729 14.1733 29.1522 15.4213 28.5109 16.444C27.8695 17.4667 27.0115 18.2293 25.9369 18.732C24.8622 19.2347 23.6749 19.486 22.3749 19.486C21.0749 19.486 19.8875 19.2347 18.8129 18.732C17.7555 18.2293 16.9149 17.4667 16.2909 16.444C15.6669 15.4213 15.3549 14.1733 15.3549 12.7V1.234H18.3189ZM36.296 16.912H42.406V19.304H33.332V1.234H36.296V16.912ZM47.8488 16.912H53.9588V19.304H44.8848V1.234H47.8488V16.912ZM67.4355 8.644V11.14H56.7495V8.644H67.4355ZM77.6005 19.486C76.3872 19.486 75.2952 19.278 74.3245 18.862C73.3538 18.4287 72.5912 17.822 72.0365 17.042C71.4818 16.262 71.2045 15.352 71.2045 14.312H74.3765C74.4458 15.092 74.7492 15.7333 75.2865 16.236C75.8412 16.7387 76.6125 16.99 77.6005 16.99C78.6232 16.99 79.4205 16.7473 79.9925 16.262C80.5645 15.7593 80.8505 15.118 80.8505 14.338C80.8505 13.7313 80.6685 13.2373 80.3045 12.856C79.9578 12.4747 79.5158 12.18 78.9785 11.972C78.4585 11.764 77.7305 11.5387 76.7945 11.296C75.6158 10.984 74.6538 10.672 73.9085 10.36C73.1805 10.0307 72.5565 9.528 72.0365 8.852C71.5165 8.176 71.2565 7.27467 71.2565 6.148C71.2565 5.108 71.5165 4.198 72.0365 3.418C72.5565 2.638 73.2845 2.04 74.2205 1.624C75.1565 1.208 76.2398 0.999999 77.4705 0.999999C79.2212 0.999999 80.6512 1.442 81.7605 2.326C82.8872 3.19267 83.5112 4.38867 83.6325 5.914H80.3565C80.3045 5.25533 79.9925 4.692 79.4205 4.224C78.8485 3.756 78.0945 3.522 77.1585 3.522C76.3092 3.522 75.6158 3.73867 75.0785 4.172C74.5412 4.60533 74.2725 5.22933 74.2725 6.044C74.2725 6.59867 74.4372 7.058 74.7665 7.422C75.1132 7.76867 75.5465 8.046 76.0665 8.254C76.5865 8.462 77.2972 8.68733 78.1985 8.93C79.3945 9.25933 80.3652 9.58867 81.1105 9.918C81.8732 10.2473 82.5145 10.7587 83.0345 11.452C83.5718 12.128 83.8405 13.038 83.8405 14.182C83.8405 15.1007 83.5892 15.9673 83.0865 16.782C82.6012 17.5967 81.8818 18.2553 80.9285 18.758C79.9925 19.2433 78.8832 19.486 77.6005 19.486ZM99.0119 1.234V3.652H94.2019V19.304H91.2379V3.652H86.4019V1.234H99.0119ZM112.908 15.612H105.342L104.042 19.304H100.948L107.422 1.208H110.854L117.328 19.304H114.208L112.908 15.612ZM112.076 13.194L109.138 4.796L106.174 13.194H112.076ZM119.155 10.23C119.155 8.462 119.562 6.876 120.377 5.472C121.209 4.068 122.327 2.976 123.731 2.196C125.152 1.39867 126.703 0.999999 128.385 0.999999C130.309 0.999999 132.016 1.47667 133.507 2.43C135.015 3.366 136.107 4.70067 136.783 6.434H133.221C132.753 5.48067 132.103 4.77 131.271 4.302C130.439 3.834 129.477 3.6 128.385 3.6C127.189 3.6 126.123 3.86867 125.187 4.406C124.251 4.94333 123.514 5.71467 122.977 6.72C122.457 7.72533 122.197 8.89533 122.197 10.23C122.197 11.5647 122.457 12.7347 122.977 13.74C123.514 14.7453 124.251 15.5253 125.187 16.08C126.123 16.6173 127.189 16.886 128.385 16.886C129.477 16.886 130.439 16.652 131.271 16.184C132.103 15.716 132.753 15.0053 133.221 14.052H136.783C136.107 15.7853 135.015 17.12 133.507 18.056C132.016 18.992 130.309 19.46 128.385 19.46C126.686 19.46 125.135 19.07 123.731 18.29C122.327 17.4927 121.209 16.392 120.377 14.988C119.562 13.584 119.155 11.998 119.155 10.23ZM150.21 19.304L143.216 11.218V19.304H140.252V1.234H143.216V9.476L150.236 1.234H153.954L146.102 10.282L154.084 19.304H150.21ZM169.361 1.234C171.285 1.234 172.966 1.60667 174.405 2.352C175.861 3.08 176.979 4.13733 177.759 5.524C178.556 6.89333 178.955 8.49667 178.955 10.334C178.955 12.1713 178.556 13.766 177.759 15.118C176.979 16.47 175.861 17.51 174.405 18.238C172.966 18.9487 171.285 19.304 169.361 19.304H163.459V1.234H169.361ZM169.361 16.886C171.476 16.886 173.096 16.314 174.223 15.17C175.35 14.026 175.913 12.414 175.913 10.334C175.913 8.23667 175.35 6.59867 174.223 5.42C173.096 4.24133 171.476 3.652 169.361 3.652H166.423V16.886H169.361ZM184.857 3.626V8.93H191.097V11.348H184.857V16.886H191.877V19.304H181.893V1.208H191.877V3.626H184.857ZM211.101 1.234L204.315 19.304H200.883L194.071 1.234H197.243L202.599 16.262L207.981 1.234H211.101ZM216.544 3.626V8.93H222.784V11.348H216.544V16.886H223.564V19.304H213.58V1.208H223.564V3.626H216.544ZM230.179 16.912H236.289V19.304H227.215V1.234H230.179V16.912ZM247.01 19.486C245.328 19.486 243.777 19.096 242.356 18.316C240.952 17.5187 239.834 16.418 239.002 15.014C238.187 13.5927 237.78 11.998 237.78 10.23C237.78 8.462 238.187 6.876 239.002 5.472C239.834 4.068 240.952 2.976 242.356 2.196C243.777 1.39867 245.328 0.999999 247.01 0.999999C248.708 0.999999 250.26 1.39867 251.664 2.196C253.085 2.976 254.203 4.068 255.018 5.472C255.832 6.876 256.24 8.462 256.24 10.23C256.24 11.998 255.832 13.5927 255.018 15.014C254.203 16.418 253.085 17.5187 251.664 18.316C250.26 19.096 248.708 19.486 247.01 19.486ZM247.01 16.912C248.206 16.912 249.272 16.6433 250.208 16.106C251.144 15.5513 251.872 14.7713 252.392 13.766C252.929 12.7433 253.198 11.5647 253.198 10.23C253.198 8.89533 252.929 7.72533 252.392 6.72C251.872 5.71467 251.144 4.94333 250.208 4.406C249.272 3.86867 248.206 3.6 247.01 3.6C245.814 3.6 244.748 3.86867 243.812 4.406C242.876 4.94333 242.139 5.71467 241.602 6.72C241.082 7.72533 240.822 8.89533 240.822 10.23C240.822 11.5647 241.082 12.7433 241.602 13.766C242.139 14.7713 242.876 15.5513 243.812 16.106C244.748 16.6433 245.814 16.912 247.01 16.912ZM271.792 6.616C271.792 7.53467 271.576 8.40133 271.142 9.216C270.709 10.0307 270.016 10.698 269.062 11.218C268.109 11.7207 266.887 11.972 265.396 11.972H262.12V19.304H259.156V1.234H265.396C266.783 1.234 267.953 1.47667 268.906 1.962C269.877 2.43 270.596 3.07133 271.064 3.886C271.55 4.70067 271.792 5.61067 271.792 6.616ZM265.396 9.554C266.523 9.554 267.364 9.30267 267.918 8.8C268.473 8.28 268.75 7.552 268.75 6.616C268.75 4.64 267.632 3.652 265.396 3.652H262.12V9.554H265.396ZM277.583 3.626V8.93H283.823V11.348H277.583V16.886H284.603V19.304H274.619V1.208H284.603V3.626H277.583ZM297.64 19.304L293.48 12.076H291.218V19.304H288.254V1.234H294.494C295.881 1.234 297.051 1.47667 298.004 1.962C298.975 2.44733 299.694 3.09733 300.162 3.912C300.647 4.72667 300.89 5.63667 300.89 6.642C300.89 7.82067 300.543 8.89533 299.85 9.866C299.174 10.8193 298.125 11.4693 296.704 11.816L301.176 19.304H297.64ZM291.218 9.71H294.494C295.603 9.71 296.435 9.43267 296.99 8.878C297.562 8.32333 297.848 7.578 297.848 6.642C297.848 5.706 297.571 4.978 297.016 4.458C296.461 3.92067 295.621 3.652 294.494 3.652H291.218V9.71Z"/>
</mask>
<path d="M12.634 1.234V3.652H4.964V8.982H10.944V11.4H4.964V19.304H2V1.234H12.634ZM18.3189 1.234V12.752C18.3189 14.1213 18.6742 15.1527 19.3849 15.846C20.1129 16.5393 21.1182 16.886 22.4009 16.886C23.7009 16.886 24.7062 16.5393 25.4169 15.846C26.1449 15.1527 26.5089 14.1213 26.5089 12.752V1.234H29.4729V12.7C29.4729 14.1733 29.1522 15.4213 28.5109 16.444C27.8695 17.4667 27.0115 18.2293 25.9369 18.732C24.8622 19.2347 23.6749 19.486 22.3749 19.486C21.0749 19.486 19.8875 19.2347 18.8129 18.732C17.7555 18.2293 16.9149 17.4667 16.2909 16.444C15.6669 15.4213 15.3549 14.1733 15.3549 12.7V1.234H18.3189ZM36.296 16.912H42.406V19.304H33.332V1.234H36.296V16.912ZM47.8488 16.912H53.9588V19.304H44.8848V1.234H47.8488V16.912ZM67.4355 8.644V11.14H56.7495V8.644H67.4355ZM77.6005 19.486C76.3872 19.486 75.2952 19.278 74.3245 18.862C73.3538 18.4287 72.5912 17.822 72.0365 17.042C71.4818 16.262 71.2045 15.352 71.2045 14.312H74.3765C74.4458 15.092 74.7492 15.7333 75.2865 16.236C75.8412 16.7387 76.6125 16.99 77.6005 16.99C78.6232 16.99 79.4205 16.7473 79.9925 16.262C80.5645 15.7593 80.8505 15.118 80.8505 14.338C80.8505 13.7313 80.6685 13.2373 80.3045 12.856C79.9578 12.4747 79.5158 12.18 78.9785 11.972C78.4585 11.764 77.7305 11.5387 76.7945 11.296C75.6158 10.984 74.6538 10.672 73.9085 10.36C73.1805 10.0307 72.5565 9.528 72.0365 8.852C71.5165 8.176 71.2565 7.27467 71.2565 6.148C71.2565 5.108 71.5165 4.198 72.0365 3.418C72.5565 2.638 73.2845 2.04 74.2205 1.624C75.1565 1.208 76.2398 0.999999 77.4705 0.999999C79.2212 0.999999 80.6512 1.442 81.7605 2.326C82.8872 3.19267 83.5112 4.38867 83.6325 5.914H80.3565C80.3045 5.25533 79.9925 4.692 79.4205 4.224C78.8485 3.756 78.0945 3.522 77.1585 3.522C76.3092 3.522 75.6158 3.73867 75.0785 4.172C74.5412 4.60533 74.2725 5.22933 74.2725 6.044C74.2725 6.59867 74.4372 7.058 74.7665 7.422C75.1132 7.76867 75.5465 8.046 76.0665 8.254C76.5865 8.462 77.2972 8.68733 78.1985 8.93C79.3945 9.25933 80.3652 9.58867 81.1105 9.918C81.8732 10.2473 82.5145 10.7587 83.0345 11.452C83.5718 12.128 83.8405 13.038 83.8405 14.182C83.8405 15.1007 83.5892 15.9673 83.0865 16.782C82.6012 17.5967 81.8818 18.2553 80.9285 18.758C79.9925 19.2433 78.8832 19.486 77.6005 19.486ZM99.0119 1.234V3.652H94.2019V19.304H91.2379V3.652H86.4019V1.234H99.0119ZM112.908 15.612H105.342L104.042 19.304H100.948L107.422 1.208H110.854L117.328 19.304H114.208L112.908 15.612ZM112.076 13.194L109.138 4.796L106.174 13.194H112.076ZM119.155 10.23C119.155 8.462 119.562 6.876 120.377 5.472C121.209 4.068 122.327 2.976 123.731 2.196C125.152 1.39867 126.703 0.999999 128.385 0.999999C130.309 0.999999 132.016 1.47667 133.507 2.43C135.015 3.366 136.107 4.70067 136.783 6.434H133.221C132.753 5.48067 132.103 4.77 131.271 4.302C130.439 3.834 129.477 3.6 128.385 3.6C127.189 3.6 126.123 3.86867 125.187 4.406C124.251 4.94333 123.514 5.71467 122.977 6.72C122.457 7.72533 122.197 8.89533 122.197 10.23C122.197 11.5647 122.457 12.7347 122.977 13.74C123.514 14.7453 124.251 15.5253 125.187 16.08C126.123 16.6173 127.189 16.886 128.385 16.886C129.477 16.886 130.439 16.652 131.271 16.184C132.103 15.716 132.753 15.0053 133.221 14.052H136.783C136.107 15.7853 135.015 17.12 133.507 18.056C132.016 18.992 130.309 19.46 128.385 19.46C126.686 19.46 125.135 19.07 123.731 18.29C122.327 17.4927 121.209 16.392 120.377 14.988C119.562 13.584 119.155 11.998 119.155 10.23ZM150.21 19.304L143.216 11.218V19.304H140.252V1.234H143.216V9.476L150.236 1.234H153.954L146.102 10.282L154.084 19.304H150.21ZM169.361 1.234C171.285 1.234 172.966 1.60667 174.405 2.352C175.861 3.08 176.979 4.13733 177.759 5.524C178.556 6.89333 178.955 8.49667 178.955 10.334C178.955 12.1713 178.556 13.766 177.759 15.118C176.979 16.47 175.861 17.51 174.405 18.238C172.966 18.9487 171.285 19.304 169.361 19.304H163.459V1.234H169.361ZM169.361 16.886C171.476 16.886 173.096 16.314 174.223 15.17C175.35 14.026 175.913 12.414 175.913 10.334C175.913 8.23667 175.35 6.59867 174.223 5.42C173.096 4.24133 171.476 3.652 169.361 3.652H166.423V16.886H169.361ZM184.857 3.626V8.93H191.097V11.348H184.857V16.886H191.877V19.304H181.893V1.208H191.877V3.626H184.857ZM211.101 1.234L204.315 19.304H200.883L194.071 1.234H197.243L202.599 16.262L207.981 1.234H211.101ZM216.544 3.626V8.93H222.784V11.348H216.544V16.886H223.564V19.304H213.58V1.208H223.564V3.626H216.544ZM230.179 16.912H236.289V19.304H227.215V1.234H230.179V16.912ZM247.01 19.486C245.328 19.486 243.777 19.096 242.356 18.316C240.952 17.5187 239.834 16.418 239.002 15.014C238.187 13.5927 237.78 11.998 237.78 10.23C237.78 8.462 238.187 6.876 239.002 5.472C239.834 4.068 240.952 2.976 242.356 2.196C243.777 1.39867 245.328 0.999999 247.01 0.999999C248.708 0.999999 250.26 1.39867 251.664 2.196C253.085 2.976 254.203 4.068 255.018 5.472C255.832 6.876 256.24 8.462 256.24 10.23C256.24 11.998 255.832 13.5927 255.018 15.014C254.203 16.418 253.085 17.5187 251.664 18.316C250.26 19.096 248.708 19.486 247.01 19.486ZM247.01 16.912C248.206 16.912 249.272 16.6433 250.208 16.106C251.144 15.5513 251.872 14.7713 252.392 13.766C252.929 12.7433 253.198 11.5647 253.198 10.23C253.198 8.89533 252.929 7.72533 252.392 6.72C251.872 5.71467 251.144 4.94333 250.208 4.406C249.272 3.86867 248.206 3.6 247.01 3.6C245.814 3.6 244.748 3.86867 243.812 4.406C242.876 4.94333 242.139 5.71467 241.602 6.72C241.082 7.72533 240.822 8.89533 240.822 10.23C240.822 11.5647 241.082 12.7433 241.602 13.766C242.139 14.7713 242.876 15.5513 243.812 16.106C244.748 16.6433 245.814 16.912 247.01 16.912ZM271.792 6.616C271.792 7.53467 271.576 8.40133 271.142 9.216C270.709 10.0307 270.016 10.698 269.062 11.218C268.109 11.7207 266.887 11.972 265.396 11.972H262.12V19.304H259.156V1.234H265.396C266.783 1.234 267.953 1.47667 268.906 1.962C269.877 2.43 270.596 3.07133 271.064 3.886C271.55 4.70067 271.792 5.61067 271.792 6.616ZM265.396 9.554C266.523 9.554 267.364 9.30267 267.918 8.8C268.473 8.28 268.75 7.552 268.75 6.616C268.75 4.64 267.632 3.652 265.396 3.652H262.12V9.554H265.396ZM277.583 3.626V8.93H283.823V11.348H277.583V16.886H284.603V19.304H274.619V1.208H284.603V3.626H277.583ZM297.64 19.304L293.48 12.076H291.218V19.304H288.254V1.234H294.494C295.881 1.234 297.051 1.47667 298.004 1.962C298.975 2.44733 299.694 3.09733 300.162 3.912C300.647 4.72667 300.89 5.63667 300.89 6.642C300.89 7.82067 300.543 8.89533 299.85 9.866C299.174 10.8193 298.125 11.4693 296.704 11.816L301.176 19.304H297.64ZM291.218 9.71H294.494C295.603 9.71 296.435 9.43267 296.99 8.878C297.562 8.32333 297.848 7.578 297.848 6.642C297.848 5.706 297.571 4.978 297.016 4.458C296.461 3.92067 295.621 3.652 294.494 3.652H291.218V9.71Z" fill="white"/>
<path d="M12.634 1.234H13.634V0.233999H12.634V1.234ZM12.634 3.652V4.652H13.634V3.652H12.634ZM4.964 3.652V2.652H3.964V3.652H4.964ZM4.964 8.982H3.964V9.982H4.964V8.982ZM10.944 8.982H11.944V7.982H10.944V8.982ZM10.944 11.4V12.4H11.944V11.4H10.944ZM4.964 11.4V10.4H3.964V11.4H4.964ZM4.964 19.304V20.304H5.964V19.304H4.964ZM2 19.304H1V20.304H2V19.304ZM2 1.234V0.233999H1V1.234H2ZM12.634 1.234H11.634V3.652H12.634H13.634V1.234H12.634ZM12.634 3.652V2.652H4.964V3.652V4.652H12.634V3.652ZM4.964 3.652H3.964V8.982H4.964H5.964V3.652H4.964ZM4.964 8.982V9.982H10.944V8.982V7.982H4.964V8.982ZM10.944 8.982H9.944V11.4H10.944H11.944V8.982H10.944ZM10.944 11.4V10.4H4.964V11.4V12.4H10.944V11.4ZM4.964 11.4H3.964V19.304H4.964H5.964V11.4H4.964ZM4.964 19.304V18.304H2V19.304V20.304H4.964V19.304ZM2 19.304H3V1.234H2H1V19.304H2ZM2 1.234V2.234H12.634V1.234V0.233999H2V1.234ZM18.3189 1.234H19.3189V0.233999H18.3189V1.234ZM19.3849 15.846L18.6865 16.5618L18.6952 16.5701L19.3849 15.846ZM25.4169 15.846L24.7272 15.1218L24.7185 15.1302L25.4169 15.846ZM26.5089 1.234V0.233999H25.5089V1.234H26.5089ZM29.4729 1.234H30.4729V0.233999H29.4729V1.234ZM28.5109 16.444L29.3581 16.9753V16.9753L28.5109 16.444ZM25.9369 18.732L25.5132 17.8262L25.9369 18.732ZM18.8129 18.732L18.3835 19.6352L18.3892 19.6378L18.8129 18.732ZM16.2909 16.444L15.4372 16.9649V16.9649L16.2909 16.444ZM15.3549 1.234V0.233999H14.3549V1.234H15.3549ZM18.3189 1.234H17.3189V12.752H18.3189H19.3189V1.234H18.3189ZM18.3189 12.752H17.3189C17.3189 14.2861 17.7191 15.6179 18.6865 16.5618L19.3849 15.846L20.0832 15.1302C19.6293 14.6874 19.3189 13.9565 19.3189 12.752H18.3189ZM19.3849 15.846L18.6952 16.5701C19.6565 17.4856 20.9352 17.886 22.4009 17.886V16.886V15.886C21.3012 15.886 20.5693 15.5931 20.0745 15.1219L19.3849 15.846ZM22.4009 16.886V17.886C23.8782 17.886 25.1654 17.4884 26.1152 16.5618L25.4169 15.846L24.7185 15.1302C24.247 15.5903 23.5235 15.886 22.4009 15.886V16.886ZM25.4169 15.846L26.1065 16.5701C27.0963 15.6275 27.5089 14.2926 27.5089 12.752H26.5089H25.5089C25.5089 13.95 25.1934 14.6778 24.7272 15.1219L25.4169 15.846ZM26.5089 12.752H27.5089V1.234H26.5089H25.5089V12.752H26.5089ZM26.5089 1.234V2.234H29.4729V1.234V0.233999H26.5089V1.234ZM29.4729 1.234H28.4729V12.7H29.4729H30.4729V1.234H29.4729ZM29.4729 12.7H28.4729C28.4729 14.027 28.1852 15.0812 27.6637 15.9127L28.5109 16.444L29.3581 16.9753C30.1192 15.7615 30.4729 14.3197 30.4729 12.7H29.4729ZM28.5109 16.444L27.6637 15.9127C27.1227 16.7754 26.4104 17.4065 25.5132 17.8262L25.9369 18.732L26.3605 19.6378C27.6127 19.0521 28.6164 18.1579 29.3581 16.9753L28.5109 16.444ZM25.9369 18.732L25.5132 17.8262C24.5834 18.2611 23.5426 18.486 22.3749 18.486V19.486V20.486C23.8071 20.486 25.141 20.2083 26.3605 19.6378L25.9369 18.732ZM22.3749 19.486V18.486C21.2071 18.486 20.1663 18.2611 19.2365 17.8262L18.8129 18.732L18.3892 19.6378C19.6088 20.2083 20.9426 20.486 22.3749 20.486V19.486ZM18.8129 18.732L19.2422 17.8289C18.3648 17.4117 17.6697 16.7839 17.1445 15.9231L16.2909 16.444L15.4372 16.9649C16.16 18.1494 17.1463 19.047 18.3835 19.6351L18.8129 18.732ZM16.2909 16.444L17.1445 15.9231C16.636 15.0898 16.3549 14.0317 16.3549 12.7H15.3549H14.3549C14.3549 14.3149 14.6977 15.7529 15.4372 16.9649L16.2909 16.444ZM15.3549 12.7H16.3549V1.234H15.3549H14.3549V12.7H15.3549ZM15.3549 1.234V2.234H18.3189V1.234V0.233999H15.3549V1.234ZM36.296 16.912H35.296V17.912H36.296V16.912ZM42.406 16.912H43.406V15.912H42.406V16.912ZM42.406 19.304V20.304H43.406V19.304H42.406ZM33.332 19.304H32.332V20.304H33.332V19.304ZM33.332 1.234V0.233999H32.332V1.234H33.332ZM36.296 1.234H37.296V0.233999H36.296V1.234ZM36.296 16.912V17.912H42.406V16.912V15.912H36.296V16.912ZM42.406 16.912H41.406V19.304H42.406H43.406V16.912H42.406ZM42.406 19.304V18.304H33.332V19.304V20.304H42.406V19.304ZM33.332 19.304H34.332V1.234H33.332H32.332V19.304H33.332ZM33.332 1.234V2.234H36.296V1.234V0.233999H33.332V1.234ZM36.296 1.234H35.296V16.912H36.296H37.296V1.234H36.296ZM47.8488 16.912H46.8488V17.912H47.8488V16.912ZM53.9588 16.912H54.9588V15.912H53.9588V16.912ZM53.9588 19.304V20.304H54.9588V19.304H53.9588ZM44.8848 19.304H43.8848V20.304H44.8848V19.304ZM44.8848 1.234V0.233999H43.8848V1.234H44.8848ZM47.8488 1.234H48.8488V0.233999H47.8488V1.234ZM47.8488 16.912V17.912H53.9588V16.912V15.912H47.8488V16.912ZM53.9588 16.912H52.9588V19.304H53.9588H54.9588V16.912H53.9588ZM53.9588 19.304V18.304H44.8848V19.304V20.304H53.9588V19.304ZM44.8848 19.304H45.8848V1.234H44.8848H43.8848V19.304H44.8848ZM44.8848 1.234V2.234H47.8488V1.234V0.233999H44.8848V1.234ZM47.8488 1.234H46.8488V16.912H47.8488H48.8488V1.234H47.8488ZM67.4355 8.644H68.4355V7.644H67.4355V8.644ZM67.4355 11.14V12.14H68.4355V11.14H67.4355ZM56.7495 11.14H55.7495V12.14H56.7495V11.14ZM56.7495 8.644V7.644H55.7495V8.644H56.7495ZM67.4355 8.644H66.4355V11.14H67.4355H68.4355V8.644H67.4355ZM67.4355 11.14V10.14H56.7495V11.14V12.14H67.4355V11.14ZM56.7495 11.14H57.7495V8.644H56.7495H55.7495V11.14H56.7495ZM56.7495 8.644V9.644H67.4355V8.644V7.644H56.7495V8.644ZM74.3245 18.862L73.9168 19.7751L73.9237 19.7782L73.9306 19.7811L74.3245 18.862ZM72.0365 17.042L72.8514 16.4625V16.4625L72.0365 17.042ZM71.2045 14.312V13.312H70.2045V14.312H71.2045ZM74.3765 14.312L75.3726 14.2235L75.2915 13.312H74.3765V14.312ZM75.2865 16.236L74.6033 16.9663L74.6091 16.9717L74.615 16.977L75.2865 16.236ZM79.9925 16.262L80.6395 17.0245L80.6461 17.0189L80.6526 17.0132L79.9925 16.262ZM80.3045 12.856L79.5645 13.5287L79.5727 13.5377L79.5811 13.5465L80.3045 12.856ZM78.9785 11.972L78.6071 12.9005L78.6175 12.9046L78.9785 11.972ZM76.7945 11.296L76.5386 12.2627L76.5435 12.264L76.7945 11.296ZM73.9085 10.36L73.4963 11.2711L73.5093 11.277L73.5223 11.2824L73.9085 10.36ZM72.0365 3.418L72.8685 3.9727V3.9727L72.0365 3.418ZM74.2205 1.624L74.6266 2.53781V2.53781L74.2205 1.624ZM81.7605 2.326L81.1373 3.10806L81.144 3.1134L81.1508 3.11862L81.7605 2.326ZM83.6325 5.914V6.914H84.7152L84.6293 5.83471L83.6325 5.914ZM80.3565 5.914L79.3596 5.9927L79.4323 6.914H80.3565V5.914ZM75.0785 4.172L75.7062 4.95041V4.95041L75.0785 4.172ZM74.7665 7.422L74.0249 8.09291L74.0417 8.11144L74.0594 8.12911L74.7665 7.422ZM78.1985 8.93L78.464 7.96587L78.4585 7.96439L78.1985 8.93ZM81.1105 9.918L80.7063 10.8327L80.7141 10.8361L81.1105 9.918ZM83.0345 11.452L82.2345 12.052L82.2429 12.0632L82.2517 12.0742L83.0345 11.452ZM83.0865 16.782L82.2355 16.2569L82.2314 16.2635L82.2274 16.2702L83.0865 16.782ZM80.9285 18.758L81.3888 19.6458L81.3949 19.6426L80.9285 18.758ZM77.6005 19.486V18.486C76.5025 18.486 75.5474 18.2981 74.7184 17.9429L74.3245 18.862L73.9306 19.7811C75.0429 20.2579 76.2718 20.486 77.6005 20.486V19.486ZM74.3245 18.862L74.7321 17.9489C73.9061 17.5801 73.2914 17.0812 72.8514 16.4625L72.0365 17.042L71.2215 17.6215C71.8909 18.5628 72.8016 19.2772 73.9168 19.7751L74.3245 18.862ZM72.0365 17.042L72.8514 16.4625C72.4277 15.8665 72.2045 15.1632 72.2045 14.312H71.2045H70.2045C70.2045 15.5408 70.536 16.6575 71.2215 17.6215L72.0365 17.042ZM71.2045 14.312V15.312H74.3765V14.312V13.312H71.2045V14.312ZM74.3765 14.312L73.3804 14.4005C73.47 15.4085 73.8741 16.2841 74.6033 16.9663L75.2865 16.236L75.9696 15.5057C75.6242 15.1826 75.4216 14.7755 75.3726 14.2235L74.3765 14.312ZM75.2865 16.236L74.615 16.977C75.4059 17.6938 76.4454 17.99 77.6005 17.99V16.99V15.99C76.7796 15.99 76.2764 15.7835 75.958 15.495L75.2865 16.236ZM77.6005 16.99V17.99C78.774 17.99 79.8304 17.711 80.6395 17.0245L79.9925 16.262L79.3455 15.4995C79.0105 15.7837 78.4723 15.99 77.6005 15.99V16.99ZM79.9925 16.262L80.6526 17.0132C81.4466 16.3154 81.8505 15.3976 81.8505 14.338H80.8505H79.8505C79.8505 14.8384 79.6824 15.2032 79.3324 15.5108L79.9925 16.262ZM80.8505 14.338H81.8505C81.8505 13.5159 81.5963 12.761 81.0278 12.1655L80.3045 12.856L79.5811 13.5465C79.7407 13.7136 79.8505 13.9468 79.8505 14.338H80.8505ZM80.3045 12.856L81.0444 12.1833C80.5815 11.6742 80.0043 11.2968 79.3395 11.0394L78.9785 11.972L78.6175 12.9046C79.0273 13.0632 79.3341 13.2752 79.5645 13.5287L80.3045 12.856ZM78.9785 11.972L79.3499 11.0435C78.7724 10.8125 77.9976 10.5749 77.0454 10.328L76.7945 11.296L76.5435 12.264C77.4634 12.5025 78.1446 12.7155 78.6071 12.9005L78.9785 11.972ZM76.7945 11.296L77.0504 10.3293C75.8962 10.0238 74.9821 9.72535 74.2946 9.43756L73.9085 10.36L73.5223 11.2824C74.3255 11.6187 75.3354 11.9442 76.5386 12.2627L76.7945 11.296ZM73.9085 10.36L74.3207 9.44889C73.7523 9.1918 73.2559 8.79713 72.8291 8.24229L72.0365 8.852L71.2439 9.46171C71.8571 10.2589 72.6086 10.8695 73.4963 11.2711L73.9085 10.36ZM72.0365 8.852L72.8291 8.24229C72.4811 7.78993 72.2565 7.12488 72.2565 6.148H71.2565H70.2565C70.2565 7.42445 70.5518 8.56207 71.2439 9.46171L72.0365 8.852ZM71.2565 6.148H72.2565C72.2565 5.28298 72.4699 4.57071 72.8685 3.9727L72.0365 3.418L71.2044 2.8633C70.5631 3.82529 70.2565 4.93301 70.2565 6.148H71.2565ZM72.0365 3.418L72.8685 3.9727C73.2738 3.36483 73.8471 2.88427 74.6266 2.53781L74.2205 1.624L73.8143 0.71019C72.7219 1.19573 71.8392 1.91117 71.2044 2.8633L72.0365 3.418ZM74.2205 1.624L74.6266 2.53781C75.4117 2.1889 76.3521 2 77.4705 2V1V0C76.1276 0 74.9013 0.227104 73.8143 0.71019L74.2205 1.624ZM77.4705 1V2C79.0492 2 80.2434 2.39572 81.1373 3.10806L81.7605 2.326L82.3837 1.54394C81.0589 0.488279 79.3931 0 77.4705 0V1ZM81.7605 2.326L81.1508 3.11862C82.0348 3.79865 82.5348 4.72555 82.6356 5.99329L83.6325 5.914L84.6293 5.83471C84.4875 4.05178 83.7395 2.58668 82.3702 1.53337L81.7605 2.326ZM83.6325 5.914V4.914H80.3565V5.914V6.914H83.6325V5.914ZM80.3565 5.914L81.3534 5.8353C81.2773 4.8715 80.8091 4.06806 80.0537 3.45004L79.4205 4.224L78.7872 4.99796C79.1759 5.31594 79.3317 5.63917 79.3596 5.9927L80.3565 5.914ZM79.4205 4.224L80.0537 3.45004C79.2598 2.80048 78.2625 2.522 77.1585 2.522V3.522V4.522C77.9265 4.522 78.4372 4.71152 78.7872 4.99796L79.4205 4.224ZM77.1585 3.522V2.522C76.1349 2.522 75.2039 2.78619 74.4507 3.39359L75.0785 4.172L75.7062 4.95041C76.0277 4.69114 76.4834 4.522 77.1585 4.522V3.522ZM75.0785 4.172L74.4507 3.39359C73.6344 4.05188 73.2725 4.9877 73.2725 6.044H74.2725H75.2725C75.2725 5.47097 75.4479 5.15878 75.7062 4.95041L75.0785 4.172ZM74.2725 6.044H73.2725C73.2725 6.81201 73.5074 7.52091 74.0249 8.09291L74.7665 7.422L75.508 6.75109C75.3669 6.59509 75.2725 6.38532 75.2725 6.044H74.2725ZM74.7665 7.422L74.0594 8.12911C74.5145 8.58423 75.0672 8.9313 75.6951 9.18248L76.0665 8.254L76.4379 7.32552C76.0258 7.1607 75.7118 6.95311 75.4736 6.71489L74.7665 7.422ZM76.0665 8.254L75.6951 9.18248C76.2674 9.41141 77.0207 9.64851 77.9385 9.89562L78.1985 8.93L78.4585 7.96439C77.5736 7.72616 76.9055 7.51259 76.4379 7.32552L76.0665 8.254ZM78.1985 8.93L77.933 9.89412C79.1034 10.2164 80.0227 10.5306 80.7063 10.8327L81.1105 9.918L81.5146 9.00331C80.7076 8.64671 79.6856 8.30228 78.464 7.96588L78.1985 8.93ZM81.1105 9.918L80.7141 10.8361C81.3097 11.0933 81.8143 11.4918 82.2345 12.052L83.0345 11.452L83.8345 10.852C83.2147 10.0256 82.4366 9.40138 81.5069 8.99994L81.1105 9.918ZM83.0345 11.452L82.2517 12.0742C82.6086 12.5232 82.8405 13.1904 82.8405 14.182H83.8405H84.8405C84.8405 12.8856 84.5351 11.7328 83.8173 10.8298L83.0345 11.452ZM83.8405 14.182H82.8405C82.8405 14.9072 82.645 15.5931 82.2355 16.2569L83.0865 16.782L83.9375 17.3071C84.5333 16.3416 84.8405 15.2941 84.8405 14.182H83.8405ZM83.0865 16.782L82.2274 16.2702C81.8485 16.9062 81.2754 17.4446 80.4621 17.8734L80.9285 18.758L81.3949 19.6426C82.4882 19.0661 83.3538 18.2872 83.9456 17.2938L83.0865 16.782ZM80.9285 18.758L80.4682 17.8702C79.702 18.2675 78.7572 18.486 77.6005 18.486V19.486V20.486C79.0091 20.486 80.283 20.2191 81.3888 19.6458L80.9285 18.758ZM99.0119 1.234H100.012V0.233999H99.0119V1.234ZM99.0119 3.652V4.652H100.012V3.652H99.0119ZM94.2019 3.652V2.652H93.2019V3.652H94.2019ZM94.2019 19.304V20.304H95.2019V19.304H94.2019ZM91.2379 19.304H90.2379V20.304H91.2379V19.304ZM91.2379 3.652H92.2379V2.652H91.2379V3.652ZM86.4019 3.652H85.4019V4.652H86.4019V3.652ZM86.4019 1.234V0.233999H85.4019V1.234H86.4019ZM99.0119 1.234H98.0119V3.652H99.0119H100.012V1.234H99.0119ZM99.0119 3.652V2.652H94.2019V3.652V4.652H99.0119V3.652ZM94.2019 3.652H93.2019V19.304H94.2019H95.2019V3.652H94.2019ZM94.2019 19.304V18.304H91.2379V19.304V20.304H94.2019V19.304ZM91.2379 19.304H92.2379V3.652H91.2379H90.2379V19.304H91.2379ZM91.2379 3.652V2.652H86.4019V3.652V4.652H91.2379V3.652ZM86.4019 3.652H87.4019V1.234H86.4019H85.4019V3.652H86.4019ZM86.4019 1.234V2.234H99.0119V1.234V0.233999H86.4019V1.234ZM112.908 15.612L113.851 15.2799L113.616 14.612H112.908V15.612ZM105.342 15.612V14.612H104.634L104.398 15.2799L105.342 15.612ZM104.042 19.304V20.304H104.75L104.985 19.6361L104.042 19.304ZM100.948 19.304L100.006 18.9671L99.5278 20.304H100.948V19.304ZM107.422 1.208V0.208H106.717L106.48 0.871149L107.422 1.208ZM110.854 1.208L111.795 0.871149L111.558 0.208H110.854V1.208ZM117.328 19.304V20.304H118.748L118.269 18.9671L117.328 19.304ZM114.208 19.304L113.264 19.6361L113.5 20.304H114.208V19.304ZM112.076 13.194V14.194H113.485L113.02 12.8638L112.076 13.194ZM109.138 4.796L110.082 4.46578L109.142 1.7796L108.195 4.46318L109.138 4.796ZM106.174 13.194L105.231 12.8612L104.76 14.194H106.174V13.194ZM112.908 15.612V14.612H105.342V15.612V16.612H112.908V15.612ZM105.342 15.612L104.398 15.2799L103.098 18.9719L104.042 19.304L104.985 19.6361L106.285 15.9441L105.342 15.612ZM104.042 19.304V18.304H100.948V19.304V20.304H104.042V19.304ZM100.948 19.304L101.889 19.6409L108.363 1.54485L107.422 1.208L106.48 0.871149L100.006 18.9671L100.948 19.304ZM107.422 1.208V2.208H110.854V1.208V0.208H107.422V1.208ZM110.854 1.208L109.912 1.54485L116.386 19.6409L117.328 19.304L118.269 18.9671L111.795 0.871149L110.854 1.208ZM117.328 19.304V18.304H114.208V19.304V20.304H117.328V19.304ZM114.208 19.304L115.151 18.9719L113.851 15.2799L112.908 15.612L111.964 15.9441L113.264 19.6361L114.208 19.304ZM112.076 13.194L113.02 12.8638L110.082 4.46578L109.138 4.796L108.194 5.12622L111.132 13.5242L112.076 13.194ZM109.138 4.796L108.195 4.46318L105.231 12.8612L106.174 13.194L107.117 13.5268L110.081 5.12882L109.138 4.796ZM106.174 13.194V14.194H112.076V13.194V12.194H106.174V13.194ZM120.377 5.472L119.516 4.96218L119.512 4.97012L120.377 5.472ZM123.731 2.196L124.216 3.07016L124.22 3.06814L123.731 2.196ZM133.507 2.43L132.968 3.27253L132.979 3.27964L133.507 2.43ZM136.783 6.434V7.434H138.246L137.714 6.07065L136.783 6.434ZM133.221 6.434L132.323 6.87467L132.597 7.434H133.221V6.434ZM131.271 4.302L131.761 3.43042V3.43042L131.271 4.302ZM125.187 4.406L125.684 5.27325V5.27325L125.187 4.406ZM122.977 6.72L122.095 6.24858L122.088 6.26058L122.977 6.72ZM122.977 13.74L122.088 14.1995L122.095 14.2114L122.977 13.74ZM125.187 16.08L124.677 16.9404L124.689 16.9473L125.187 16.08ZM131.271 16.184L131.761 17.0556V17.0556L131.271 16.184ZM133.221 14.052V13.052H132.597L132.323 13.6113L133.221 14.052ZM136.783 14.052L137.714 14.4153L138.246 13.052H136.783V14.052ZM133.507 18.056L132.979 17.2063L132.975 17.2091L133.507 18.056ZM123.731 18.29L123.237 19.1596L123.245 19.1642L123.731 18.29ZM120.377 14.988L119.512 15.4899L119.516 15.4978L120.377 14.988ZM119.155 10.23H120.155C120.155 8.62207 120.523 7.21199 121.242 5.97388L120.377 5.472L119.512 4.97012C118.601 6.54001 118.155 8.30193 118.155 10.23H119.155ZM120.377 5.472L121.237 5.9818C121.98 4.72773 122.97 3.76262 124.216 3.07016L123.731 2.196L123.245 1.32184C121.683 2.18938 120.437 3.40827 119.516 4.9622L120.377 5.472ZM123.731 2.196L124.22 3.06814C125.487 2.35737 126.869 2 128.385 2V1V0C126.538 0 124.817 0.439966 123.241 1.32386L123.731 2.196ZM128.385 1V2C130.135 2 131.652 2.43096 132.968 3.27245L133.507 2.43L134.045 1.58755C132.38 0.522371 130.482 0 128.385 0V1ZM133.507 2.43L132.979 3.27964C134.294 4.09579 135.249 5.25518 135.851 6.79735L136.783 6.434L137.714 6.07065C136.964 4.14616 135.735 2.63621 134.034 1.58036L133.507 2.43ZM136.783 6.434V5.434H133.221V6.434V7.434H136.783V6.434ZM133.221 6.434L134.118 5.99333C133.572 4.87975 132.789 4.00858 131.761 3.43042L131.271 4.302L130.78 5.17358C131.416 5.53142 131.934 6.08159 132.323 6.87467L133.221 6.434ZM131.271 4.302L131.761 3.43042C130.759 2.86674 129.623 2.6 128.385 2.6V3.6V4.6C129.33 4.6 130.118 4.80126 130.78 5.17358L131.271 4.302ZM128.385 3.6V2.6C127.033 2.6 125.792 2.90528 124.689 3.53875L125.187 4.406L125.684 5.27325C126.453 4.83205 127.344 4.6 128.385 4.6V3.6ZM125.187 4.406L124.689 3.53875C123.581 4.17477 122.715 5.08766 122.095 6.24862L122.977 6.72L123.859 7.19138C124.313 6.34167 124.92 5.7119 125.684 5.27325L125.187 4.406ZM122.977 6.72L122.088 6.26058C121.483 7.43129 121.197 8.76404 121.197 10.23H122.197H123.197C123.197 9.02663 123.43 8.01937 123.865 7.17942L122.977 6.72ZM122.197 10.23H121.197C121.197 11.696 121.483 13.0287 122.088 14.1994L122.977 13.74L123.865 13.2806C123.43 12.4406 123.197 11.4334 123.197 10.23H122.197ZM122.977 13.74L122.095 14.2114C122.714 15.3699 123.576 16.2879 124.677 16.9403L125.187 16.08L125.696 15.2197C124.925 14.7628 124.314 14.1208 123.859 13.2686L122.977 13.74ZM125.187 16.08L124.689 16.9473C125.792 17.5807 127.033 17.886 128.385 17.886V16.886V15.886C127.344 15.886 126.453 15.6539 125.684 15.2127L125.187 16.08ZM128.385 16.886V17.886C129.623 17.886 130.759 17.6193 131.761 17.0556L131.271 16.184L130.78 15.3124C130.118 15.6847 129.33 15.886 128.385 15.886V16.886ZM131.271 16.184L131.761 17.0556C132.789 16.4774 133.572 15.6063 134.118 14.4927L133.221 14.052L132.323 13.6113C131.934 14.4044 131.416 14.9546 130.78 15.3124L131.271 16.184ZM133.221 14.052V15.052H136.783V14.052V13.052H133.221V14.052ZM136.783 14.052L135.851 13.6887C135.249 15.2308 134.294 16.3902 132.979 17.2064L133.507 18.056L134.034 18.9056C135.735 17.8498 136.964 16.3398 137.714 14.4153L136.783 14.052ZM133.507 18.056L132.975 17.2091C131.658 18.0358 130.139 18.46 128.385 18.46V19.46V20.46C130.479 20.46 132.374 19.9482 134.038 18.9029L133.507 18.056ZM128.385 19.46V18.46C126.846 18.46 125.463 18.1085 124.216 17.4158L123.731 18.29L123.245 19.1642C124.806 20.0315 126.526 20.46 128.385 20.46V19.46ZM123.731 18.29L124.224 17.4204C122.973 16.71 121.981 15.7341 121.237 14.4782L120.377 14.988L119.516 15.4978C120.436 17.0499 121.68 18.2753 123.237 19.1596L123.731 18.29ZM120.377 14.988L121.242 14.4861C120.523 13.248 120.155 11.8379 120.155 10.23H119.155H118.155C118.155 12.1581 118.601 13.92 119.512 15.4899L120.377 14.988ZM150.21 19.304L149.454 19.9582L149.753 20.304H150.21V19.304ZM143.216 11.218L143.972 10.5638L142.216 8.53326V11.218H143.216ZM143.216 19.304V20.304H144.216V19.304H143.216ZM140.252 19.304H139.252V20.304H140.252V19.304ZM140.252 1.234V0.233999H139.252V1.234H140.252ZM143.216 1.234H144.216V0.233999H143.216V1.234ZM143.216 9.476H142.216V12.1923L143.977 10.1244L143.216 9.476ZM150.236 1.234V0.233999H149.774L149.475 0.585585L150.236 1.234ZM153.954 1.234L154.709 1.88943L156.146 0.233999H153.954V1.234ZM146.102 10.282L145.347 9.62657L144.772 10.2884L145.353 10.9446L146.102 10.282ZM154.084 19.304V20.304H156.304L154.833 18.6414L154.084 19.304ZM150.21 19.304L150.966 18.6498L143.972 10.5638L143.216 11.218L142.46 11.8722L149.454 19.9582L150.21 19.304ZM143.216 11.218H142.216V19.304H143.216H144.216V11.218H143.216ZM143.216 19.304V18.304H140.252V19.304V20.304H143.216V19.304ZM140.252 19.304H141.252V1.234H140.252H139.252V19.304H140.252ZM140.252 1.234V2.234H143.216V1.234V0.233999H140.252V1.234ZM143.216 1.234H142.216V9.476H143.216H144.216V1.234H143.216ZM143.216 9.476L143.977 10.1244L150.997 1.88241L150.236 1.234L149.475 0.585585L142.455 8.82759L143.216 9.476ZM150.236 1.234V2.234H153.954V1.234V0.233999H150.236V1.234ZM153.954 1.234L153.199 0.578573L145.347 9.62657L146.102 10.282L146.857 10.9374L154.709 1.88943L153.954 1.234ZM146.102 10.282L145.353 10.9446L153.335 19.9666L154.084 19.304L154.833 18.6414L146.851 9.61938L146.102 10.282ZM154.084 19.304V18.304H150.21V19.304V20.304H154.084V19.304ZM174.405 2.352L173.945 3.23992L173.951 3.24322L173.958 3.24643L174.405 2.352ZM177.759 5.524L176.887 6.01426L176.891 6.02075L176.895 6.02719L177.759 5.524ZM177.759 15.118L176.898 14.61L176.893 14.6183L177.759 15.118ZM174.405 18.238L174.848 19.1346L174.852 19.1324L174.405 18.238ZM163.459 19.304H162.459V20.304H163.459V19.304ZM163.459 1.234V0.233999H162.459V1.234H163.459ZM174.223 15.17L173.51 14.4683V14.4683L174.223 15.17ZM166.423 3.652V2.652H165.423V3.652H166.423ZM166.423 16.886H165.423V17.886H166.423V16.886ZM169.361 1.234V2.234C171.155 2.234 172.673 2.58084 173.945 3.23992L174.405 2.352L174.865 1.46408C173.26 0.632492 171.415 0.233999 169.361 0.233999V1.234ZM174.405 2.352L173.958 3.24643C175.24 3.88731 176.208 4.80591 176.887 6.01426L177.759 5.524L178.631 5.03374C177.75 3.46875 176.482 2.27269 174.852 1.45757L174.405 2.352ZM177.759 5.524L176.895 6.02719C177.59 7.22083 177.955 8.64491 177.955 10.334H178.955H179.955C179.955 8.34843 179.523 6.56583 178.623 5.02081L177.759 5.524ZM178.955 10.334H177.955C177.955 12.0235 177.59 13.4364 176.898 14.61L177.759 15.118L178.62 15.626C179.523 14.0956 179.955 12.3192 179.955 10.334H178.955ZM177.759 15.118L176.893 14.6183C176.215 15.793 175.246 16.6993 173.958 17.3436L174.405 18.238L174.852 19.1324C176.476 18.3207 177.743 17.147 178.625 15.6177L177.759 15.118ZM174.405 18.238L173.962 17.3414C172.686 17.9718 171.162 18.304 169.361 18.304V19.304V20.304C171.408 20.304 173.247 19.9255 174.848 19.1346L174.405 18.238ZM169.361 19.304V18.304H163.459V19.304V20.304H169.361V19.304ZM163.459 19.304H164.459V1.234H163.459H162.459V19.304H163.459ZM163.459 1.234V2.234H169.361V1.234V0.233999H163.459V1.234ZM169.361 16.886V17.886C171.655 17.886 173.567 17.2614 174.935 15.8717L174.223 15.17L173.51 14.4683C172.626 15.3666 171.296 15.886 169.361 15.886V16.886ZM174.223 15.17L174.935 15.8717C176.296 14.49 176.913 12.5958 176.913 10.334H175.913H174.913C174.913 12.2322 174.403 13.562 173.51 14.4683L174.223 15.17ZM175.913 10.334H176.913C176.913 8.05582 176.297 6.14259 174.946 4.72902L174.223 5.42L173.5 6.11098C174.402 7.05475 174.913 8.41751 174.913 10.334H175.913ZM174.223 5.42L174.946 4.72902C173.579 3.29888 171.664 2.652 169.361 2.652V3.652V4.652C171.288 4.652 172.614 5.18379 173.5 6.11098L174.223 5.42ZM169.361 3.652V2.652H166.423V3.652V4.652H169.361V3.652ZM166.423 3.652H165.423V16.886H166.423H167.423V3.652H166.423ZM166.423 16.886V17.886H169.361V16.886V15.886H166.423V16.886ZM184.857 3.626V2.626H183.857V3.626H184.857ZM184.857 8.93H183.857V9.93H184.857V8.93ZM191.097 8.93H192.097V7.93H191.097V8.93ZM191.097 11.348V12.348H192.097V11.348H191.097ZM184.857 11.348V10.348H183.857V11.348H184.857ZM184.857 16.886H183.857V17.886H184.857V16.886ZM191.877 16.886H192.877V15.886H191.877V16.886ZM191.877 19.304V20.304H192.877V19.304H191.877ZM181.893 19.304H180.893V20.304H181.893V19.304ZM181.893 1.208V0.208H180.893V1.208H181.893ZM191.877 1.208H192.877V0.208H191.877V1.208ZM191.877 3.626V4.626H192.877V3.626H191.877ZM184.857 3.626H183.857V8.93H184.857H185.857V3.626H184.857ZM184.857 8.93V9.93H191.097V8.93V7.93H184.857V8.93ZM191.097 8.93H190.097V11.348H191.097H192.097V8.93H191.097ZM191.097 11.348V10.348H184.857V11.348V12.348H191.097V11.348ZM184.857 11.348H183.857V16.886H184.857H185.857V11.348H184.857ZM184.857 16.886V17.886H191.877V16.886V15.886H184.857V16.886ZM191.877 16.886H190.877V19.304H191.877H192.877V16.886H191.877ZM191.877 19.304V18.304H181.893V19.304V20.304H191.877V19.304ZM181.893 19.304H182.893V1.208H181.893H180.893V19.304H181.893ZM181.893 1.208V2.208H191.877V1.208V0.208H181.893V1.208ZM191.877 1.208H190.877V3.626H191.877H192.877V1.208H191.877ZM191.877 3.626V2.626H184.857V3.626V4.626H191.877V3.626ZM211.101 1.234L212.038 1.58557L212.545 0.233999H211.101V1.234ZM204.315 19.304V20.304H205.008L205.252 19.6556L204.315 19.304ZM200.883 19.304L199.948 19.6567L200.192 20.304H200.883V19.304ZM194.071 1.234V0.233999H192.626L193.136 1.58675L194.071 1.234ZM197.243 1.234L198.185 0.898283L197.949 0.233999H197.243V1.234ZM202.599 16.262L201.657 16.5977L202.597 19.2343L203.541 16.5992L202.599 16.262ZM207.981 1.234V0.233999H207.277L207.04 0.896837L207.981 1.234ZM211.101 1.234L210.165 0.882433L203.379 18.9524L204.315 19.304L205.252 19.6556L212.038 1.58557L211.101 1.234ZM204.315 19.304V18.304H200.883V19.304V20.304H204.315V19.304ZM200.883 19.304L201.819 18.9513L195.007 0.881254L194.071 1.234L193.136 1.58675L199.948 19.6567L200.883 19.304ZM194.071 1.234V2.234H197.243V1.234V0.233999H194.071V1.234ZM197.243 1.234L196.301 1.56972L201.657 16.5977L202.599 16.262L203.541 15.9263L198.185 0.898283L197.243 1.234ZM202.599 16.262L203.541 16.5992L208.923 1.57116L207.981 1.234L207.04 0.896837L201.658 15.9248L202.599 16.262ZM207.981 1.234V2.234H211.101V1.234V0.233999H207.981V1.234ZM216.544 3.626V2.626H215.544V3.626H216.544ZM216.544 8.93H215.544V9.93H216.544V8.93ZM222.784 8.93H223.784V7.93H222.784V8.93ZM222.784 11.348V12.348H223.784V11.348H222.784ZM216.544 11.348V10.348H215.544V11.348H216.544ZM216.544 16.886H215.544V17.886H216.544V16.886ZM223.564 16.886H224.564V15.886H223.564V16.886ZM223.564 19.304V20.304H224.564V19.304H223.564ZM213.58 19.304H212.58V20.304H213.58V19.304ZM213.58 1.208V0.208H212.58V1.208H213.58ZM223.564 1.208H224.564V0.208H223.564V1.208ZM223.564 3.626V4.626H224.564V3.626H223.564ZM216.544 3.626H215.544V8.93H216.544H217.544V3.626H216.544ZM216.544 8.93V9.93H222.784V8.93V7.93H216.544V8.93ZM222.784 8.93H221.784V11.348H222.784H223.784V8.93H222.784ZM222.784 11.348V10.348H216.544V11.348V12.348H222.784V11.348ZM216.544 11.348H215.544V16.886H216.544H217.544V11.348H216.544ZM216.544 16.886V17.886H223.564V16.886V15.886H216.544V16.886ZM223.564 16.886H222.564V19.304H223.564H224.564V16.886H223.564ZM223.564 19.304V18.304H213.58V19.304V20.304H223.564V19.304ZM213.58 19.304H214.58V1.208H213.58H212.58V19.304H213.58ZM213.58 1.208V2.208H223.564V1.208V0.208H213.58V1.208ZM223.564 1.208H222.564V3.626H223.564H224.564V1.208H223.564ZM223.564 3.626V2.626H216.544V3.626V4.626H223.564V3.626ZM230.179 16.912H229.179V17.912H230.179V16.912ZM236.289 16.912H237.289V15.912H236.289V16.912ZM236.289 19.304V20.304H237.289V19.304H236.289ZM227.215 19.304H226.215V20.304H227.215V19.304ZM227.215 1.234V0.233999H226.215V1.234H227.215ZM230.179 1.234H231.179V0.233999H230.179V1.234ZM230.179 16.912V17.912H236.289V16.912V15.912H230.179V16.912ZM236.289 16.912H235.289V19.304H236.289H237.289V16.912H236.289ZM236.289 19.304V18.304H227.215V19.304V20.304H236.289V19.304ZM227.215 19.304H228.215V1.234H227.215H226.215V19.304H227.215ZM227.215 1.234V2.234H230.179V1.234V0.233999H227.215V1.234ZM230.179 1.234H229.179V16.912H230.179H231.179V1.234H230.179ZM242.356 18.316L241.862 19.1856L241.868 19.1892L241.874 19.1927L242.356 18.316ZM239.002 15.014L238.134 15.5113L238.138 15.5176L238.141 15.5238L239.002 15.014ZM239.002 5.472L238.141 4.96218L238.137 4.97012L239.002 5.472ZM242.356 2.196L242.841 3.07016L242.845 3.06814L242.356 2.196ZM251.664 2.196L251.17 3.06556L251.176 3.06916L251.182 3.07267L251.664 2.196ZM255.018 5.472L254.153 5.97388V5.97388L255.018 5.472ZM255.018 15.014L255.883 15.5159L255.885 15.5113L255.018 15.014ZM251.664 18.316L252.149 19.1902L252.153 19.1881L251.664 18.316ZM250.208 16.106L250.705 16.9733L250.717 16.9663L250.208 16.106ZM252.392 13.766L251.506 13.3009L251.503 13.3066L252.392 13.766ZM252.392 6.72L251.503 7.17947L251.51 7.19138L252.392 6.72ZM250.208 4.406L249.71 5.27325V5.27325L250.208 4.406ZM243.812 4.406L244.309 5.27325V5.27325L243.812 4.406ZM241.602 6.72L240.72 6.24858L240.713 6.26058L241.602 6.72ZM241.602 13.766L240.71 14.2192L240.715 14.2284L240.72 14.2374L241.602 13.766ZM243.812 16.106L243.302 16.9664L243.314 16.9733L243.812 16.106ZM247.01 19.486V18.486C245.49 18.486 244.105 18.1354 242.837 17.4393L242.356 18.316L241.874 19.1927C243.449 20.0566 245.167 20.486 247.01 20.486V19.486ZM242.356 18.316L242.849 17.4464C241.598 16.736 240.606 15.7601 239.862 14.5042L239.002 15.014L238.141 15.5238C239.061 17.0759 240.305 18.3013 241.862 19.1856L242.356 18.316ZM239.002 15.014L239.869 14.5167C239.148 13.2587 238.78 11.8378 238.78 10.23H237.78H236.78C236.78 12.1582 237.226 13.9267 238.134 15.5113L239.002 15.014ZM237.78 10.23H238.78C238.78 8.62207 239.148 7.21199 239.867 5.97388L239.002 5.472L238.137 4.97012C237.226 6.54001 236.78 8.30193 236.78 10.23H237.78ZM239.002 5.472L239.862 5.9818C240.605 4.72773 241.595 3.76262 242.841 3.07016L242.356 2.196L241.87 1.32184C240.308 2.18938 239.062 3.40827 238.141 4.9622L239.002 5.472ZM242.356 2.196L242.845 3.06814C244.112 2.35737 245.494 2 247.01 2V1V0C245.163 0 243.442 0.439966 241.866 1.32386L242.356 2.196ZM247.01 1V2C248.544 2 249.924 2.35823 251.17 3.06556L251.664 2.196L252.157 1.32644C250.595 0.439106 248.872 0 247.01 0V1ZM251.664 2.196L251.182 3.07267C252.444 3.76492 253.429 4.72724 254.153 5.97388L255.018 5.472L255.883 4.97012C254.977 3.40876 253.726 2.18708 252.145 1.31933L251.664 2.196ZM255.018 5.472L254.153 5.97388C254.871 7.21199 255.24 8.62207 255.24 10.23H256.24H257.24C257.24 8.30193 256.793 6.54001 255.883 4.97012L255.018 5.472ZM256.24 10.23H255.24C255.24 11.8378 254.871 13.2587 254.15 14.5167L255.018 15.014L255.885 15.5113C256.793 13.9267 257.24 12.1582 257.24 10.23H256.24ZM255.018 15.014L254.153 14.5121C253.428 15.7607 252.44 16.7337 251.174 17.4439L251.664 18.316L252.153 19.1881C253.73 18.3036 254.978 17.0753 255.883 15.5159L255.018 15.014ZM251.664 18.316L251.178 17.4418C249.931 18.1345 248.548 18.486 247.01 18.486V19.486V20.486C248.868 20.486 250.588 20.0575 252.149 19.1902L251.664 18.316ZM247.01 16.912V17.912C248.361 17.912 249.602 17.6067 250.705 16.9733L250.208 16.106L249.71 15.2387C248.941 15.6799 248.05 15.912 247.01 15.912V16.912ZM250.208 16.106L250.717 16.9663C251.821 16.3121 252.677 15.3901 253.28 14.2254L252.392 13.766L251.503 13.3066C251.066 14.1525 250.466 14.7905 249.698 15.2457L250.208 16.106ZM252.392 13.766L253.277 14.2311C253.9 13.0442 254.198 11.7014 254.198 10.23H253.198H252.198C252.198 11.4279 251.957 12.4425 251.506 13.3009L252.392 13.766ZM253.198 10.23H254.198C254.198 8.75904 253.901 7.42194 253.274 6.24862L252.392 6.72L251.51 7.19138C251.957 8.02873 252.198 9.03162 252.198 10.23H253.198ZM252.392 6.72L253.28 6.26058C252.676 5.09337 251.816 4.1765 250.705 3.53875L250.208 4.406L249.71 5.27325C250.471 5.71017 251.067 6.33596 251.503 7.17942L252.392 6.72ZM250.208 4.406L250.705 3.53875C249.602 2.90528 248.361 2.6 247.01 2.6V3.6V4.6C248.05 4.6 248.941 4.83205 249.71 5.27325L250.208 4.406ZM247.01 3.6V2.6C245.658 2.6 244.417 2.90528 243.314 3.53875L243.812 4.406L244.309 5.27325C245.078 4.83205 245.969 4.6 247.01 4.6V3.6ZM243.812 4.406L243.314 3.53875C242.206 4.17477 241.34 5.08766 240.72 6.24862L241.602 6.72L242.484 7.19138C242.938 6.34167 243.545 5.7119 244.309 5.27325L243.812 4.406ZM241.602 6.72L240.713 6.26058C240.108 7.43129 239.822 8.76404 239.822 10.23H240.822H241.822C241.822 9.02663 242.055 8.01937 242.49 7.17942L241.602 6.72ZM240.822 10.23H239.822C239.822 11.6965 240.108 13.0349 240.71 14.2192L241.602 13.766L242.493 13.3128C242.055 12.4518 241.822 11.4329 241.822 10.23H240.822ZM241.602 13.766L240.72 14.2374C241.339 15.3959 242.201 16.3139 243.302 16.9663L243.812 16.106L244.321 15.2457C243.55 14.7888 242.939 14.1468 242.484 13.2946L241.602 13.766ZM243.812 16.106L243.314 16.9733C244.417 17.6067 245.658 17.912 247.01 17.912V16.912V15.912C245.969 15.912 245.078 15.6799 244.309 15.2387L243.812 16.106ZM271.142 9.216L270.259 8.74639V8.74639L271.142 9.216ZM269.062 11.218L269.529 12.1027L269.541 12.0959L269.062 11.218ZM262.12 11.972V10.972H261.12V11.972H262.12ZM262.12 19.304V20.304H263.12V19.304H262.12ZM259.156 19.304H258.156V20.304H259.156V19.304ZM259.156 1.234V0.233999H258.156V1.234H259.156ZM268.906 1.962L268.453 2.85316L268.462 2.85807L268.472 2.86277L268.906 1.962ZM271.064 3.886L270.197 4.38412L270.201 4.391L270.205 4.3978L271.064 3.886ZM267.918 8.8L268.59 9.54099L268.596 9.53532L268.602 9.52954L267.918 8.8ZM262.12 3.652V2.652H261.12V3.652H262.12ZM262.12 9.554H261.12V10.554H262.12V9.554ZM271.792 6.616H270.792C270.792 7.37014 270.616 8.07563 270.259 8.74639L271.142 9.216L272.025 9.68561C272.535 8.72703 272.792 7.69919 272.792 6.616H271.792ZM271.142 9.216L270.259 8.74639C269.933 9.35967 269.396 9.89687 268.583 10.3401L269.062 11.218L269.541 12.0959C270.635 11.4991 271.485 10.7017 272.025 9.68561L271.142 9.216ZM269.062 11.218L268.596 10.3334C267.831 10.7369 266.783 10.972 265.396 10.972V11.972V12.972C266.99 12.972 268.387 12.7045 269.529 12.1026L269.062 11.218ZM265.396 11.972V10.972H262.12V11.972V12.972H265.396V11.972ZM262.12 11.972H261.12V19.304H262.12H263.12V11.972H262.12ZM262.12 19.304V18.304H259.156V19.304V20.304H262.12V19.304ZM259.156 19.304H260.156V1.234H259.156H258.156V19.304H259.156ZM259.156 1.234V2.234H265.396V1.234V0.233999H259.156V1.234ZM265.396 1.234V2.234C266.67 2.234 267.675 2.45737 268.453 2.85316L268.906 1.962L269.36 1.07084C268.231 0.495958 266.895 0.233999 265.396 0.233999V1.234ZM268.906 1.962L268.472 2.86277C269.289 3.25651 269.844 3.76897 270.197 4.38412L271.064 3.886L271.931 3.38787C271.349 2.3737 270.465 1.60349 269.341 1.06123L268.906 1.962ZM271.064 3.886L270.205 4.3978C270.593 5.04827 270.792 5.77957 270.792 6.616H271.792H272.792C272.792 5.44177 272.507 4.35307 271.923 3.3742L271.064 3.886ZM265.396 9.554V10.554C266.649 10.554 267.777 10.2773 268.59 9.54099L267.918 8.8L267.247 8.05901C266.95 8.32807 266.397 8.554 265.396 8.554V9.554ZM267.918 8.8L268.602 9.52954C269.404 8.77824 269.75 7.7599 269.75 6.616H268.75H267.75C267.75 7.3441 267.542 7.78176 267.234 8.07046L267.918 8.8ZM268.75 6.616H269.75C269.75 5.43959 269.412 4.38406 268.574 3.64367C267.76 2.92412 266.64 2.652 265.396 2.652V3.652V4.652C266.388 4.652 266.946 4.87388 267.25 5.14233C267.53 5.38994 267.75 5.81641 267.75 6.616H268.75ZM265.396 3.652V2.652H262.12V3.652V4.652H265.396V3.652ZM262.12 3.652H261.12V9.554H262.12H263.12V3.652H262.12ZM262.12 9.554V10.554H265.396V9.554V8.554H262.12V9.554ZM277.583 3.626V2.626H276.583V3.626H277.583ZM277.583 8.93H276.583V9.93H277.583V8.93ZM283.823 8.93H284.823V7.93H283.823V8.93ZM283.823 11.348V12.348H284.823V11.348H283.823ZM277.583 11.348V10.348H276.583V11.348H277.583ZM277.583 16.886H276.583V17.886H277.583V16.886ZM284.603 16.886H285.603V15.886H284.603V16.886ZM284.603 19.304V20.304H285.603V19.304H284.603ZM274.619 19.304H273.619V20.304H274.619V19.304ZM274.619 1.208V0.208H273.619V1.208H274.619ZM284.603 1.208H285.603V0.208H284.603V1.208ZM284.603 3.626V4.626H285.603V3.626H284.603ZM277.583 3.626H276.583V8.93H277.583H278.583V3.626H277.583ZM277.583 8.93V9.93H283.823V8.93V7.93H277.583V8.93ZM283.823 8.93H282.823V11.348H283.823H284.823V8.93H283.823ZM283.823 11.348V10.348H277.583V11.348V12.348H283.823V11.348ZM277.583 11.348H276.583V16.886H277.583H278.583V11.348H277.583ZM277.583 16.886V17.886H284.603V16.886V15.886H277.583V16.886ZM284.603 16.886H283.603V19.304H284.603H285.603V16.886H284.603ZM284.603 19.304V18.304H274.619V19.304V20.304H284.603V19.304ZM274.619 19.304H275.619V1.208H274.619H273.619V19.304H274.619ZM274.619 1.208V2.208H284.603V1.208V0.208H274.619V1.208ZM284.603 1.208H283.603V3.626H284.603H285.603V1.208H284.603ZM284.603 3.626V2.626H277.583V3.626V4.626H284.603V3.626ZM297.64 19.304L296.773 19.8028L297.062 20.304H297.64V19.304ZM293.48 12.076L294.347 11.5772L294.058 11.076H293.48V12.076ZM291.218 12.076V11.076H290.218V12.076H291.218ZM291.218 19.304V20.304H292.218V19.304H291.218ZM288.254 19.304H287.254V20.304H288.254V19.304ZM288.254 1.234V0.233999H287.254V1.234H288.254ZM298.004 1.962L297.55 2.85319L297.557 2.85643L298.004 1.962ZM300.162 3.912L299.295 4.41012L299.299 4.417L299.303 4.42381L300.162 3.912ZM299.85 9.866L299.036 9.28476L299.034 9.28757L299.85 9.866ZM296.704 11.816L296.467 10.8445L295.151 11.1655L295.845 12.3287L296.704 11.816ZM301.176 19.304V20.304H302.938L302.034 18.7913L301.176 19.304ZM291.218 9.71H290.218V10.71H291.218V9.71ZM296.99 8.878L296.294 8.1601L296.288 8.16545L296.283 8.17089L296.99 8.878ZM297.016 4.458L296.32 5.17624L296.326 5.18194L296.332 5.18754L297.016 4.458ZM291.218 3.652V2.652H290.218V3.652H291.218ZM297.64 19.304L298.507 18.8052L294.347 11.5772L293.48 12.076L292.613 12.5748L296.773 19.8028L297.64 19.304ZM293.48 12.076V11.076H291.218V12.076V13.076H293.48V12.076ZM291.218 12.076H290.218V19.304H291.218H292.218V12.076H291.218ZM291.218 19.304V18.304H288.254V19.304V20.304H291.218V19.304ZM288.254 19.304H289.254V1.234H288.254H287.254V19.304H288.254ZM288.254 1.234V2.234H294.494V1.234V0.233999H288.254V1.234ZM294.494 1.234V2.234C295.768 2.234 296.773 2.45737 297.55 2.85316L298.004 1.962L298.458 1.07084C297.328 0.495958 295.993 0.233999 294.494 0.233999V1.234ZM298.004 1.962L297.557 2.85643C298.379 3.26781 298.939 3.79122 299.295 4.41012L300.162 3.912L301.029 3.41388C300.449 2.40344 299.57 1.62685 298.451 1.06757L298.004 1.962ZM300.162 3.912L299.303 4.42381C299.69 5.07427 299.89 5.80557 299.89 6.642H300.89H301.89C301.89 5.46777 301.604 4.37907 301.021 3.4002L300.162 3.912ZM300.89 6.642H299.89C299.89 7.60957 299.61 8.48151 299.036 9.28476L299.85 9.866L300.664 10.4472C301.477 9.30916 301.89 8.03177 301.89 6.642H300.89ZM299.85 9.866L299.034 9.28757C298.53 9.99872 297.715 10.54 296.467 10.8445L296.704 11.816L296.941 12.7875C298.535 12.3986 299.818 11.6399 300.666 10.4444L299.85 9.866ZM296.704 11.816L295.845 12.3287L300.317 19.8167L301.176 19.304L302.034 18.7913L297.562 11.3033L296.704 11.816ZM301.176 19.304V18.304H297.64V19.304V20.304H301.176V19.304ZM291.218 9.71V10.71H294.494V9.71V8.71H291.218V9.71ZM294.494 9.71V10.71C295.757 10.71 296.889 10.3935 297.697 9.58511L296.99 8.878L296.283 8.17089C295.982 8.47188 295.449 8.71 294.494 8.71V9.71ZM296.99 8.878L297.686 9.5959C298.486 8.82001 298.848 7.79736 298.848 6.642H297.848H296.848C296.848 7.35864 296.638 7.82666 296.294 8.1601L296.99 8.878ZM297.848 6.642H298.848C298.848 5.4981 298.501 4.47976 297.7 3.72846L297.016 4.458L296.332 5.18754C296.64 5.47624 296.848 5.9139 296.848 6.642H297.848ZM297.016 4.458L297.712 3.73976C296.9 2.95331 295.762 2.652 294.494 2.652V3.652V4.652C295.479 4.652 296.023 4.88802 296.32 5.17624L297.016 4.458ZM294.494 3.652V2.652H291.218V3.652V4.652H294.494V3.652ZM291.218 3.652H290.218V9.71H291.218H292.218V3.652H291.218Z" fill="#FF6A00" mask="url(#path-1-outside-1_15_72)"/>
</g>
<defs>
<filter id="filter0_d_15_72" x="0" y="0" width="303.938" height="22.486" filterUnits="userSpaceOnUse" color-interpolation-filters="sRGB">
<feFlood flood-opacity="0" result="BackgroundImageFix"/>
<feColorMatrix in="SourceAlpha" type="matrix" values="0 0 0 0 0 0 0 0 0 0 0 0 0 0 0 0 0 0 127 0" result="hardAlpha"/>
<feOffset dy="1"/>
<feGaussianBlur stdDeviation="0.5"/>
<feComposite in2="hardAlpha" operator="out"/>
<feColorMatrix type="matrix" values="0 0 0 0 0 0 0 0 0 0 0 0 0 0 0 0 0 0 1 0"/>
<feBlend mode="normal" in2="BackgroundImageFix" result="effect1_dropShadow_15_72"/>
<feBlend mode="normal" in="SourceGraphic" in2="effect1_dropShadow_15_72" result="shape"/>
</filter>
</defs>
</svg>
